<?xml version="1.0" encoding="UTF-8" standalone="no"?>
<!DOCTYPE svg PUBLIC "-//W3C//DTD SVG 1.1//EN"
 "http://www.w3.org/Graphics/SVG/1.1/DTD/svg11.dtd">
<!-- Generated by graphviz version 7.0.2 (20221119.0110)
 -->
<!-- Title: ast Pages: 1 -->
<svg width="777pt" height="476pt"
 viewBox="0.00 0.00 777.00 476.00" xmlns="http://www.w3.org/2000/svg" xmlns:xlink="http://www.w3.org/1999/xlink">
<g id="graph0" class="graph" transform="scale(1 1) rotate(0) translate(4 472)">
<title>ast</title>
<polygon fill="white" stroke="none" points="-4,4 -4,-472 773,-472 773,4 -4,4"/>
<!-- N2 -->
<g id="node1" class="node">
<title>N2</title>
<polygon fill="none" stroke="black" points="481,-252 427,-252 427,-216 481,-216 481,-252"/>
<text text-anchor="middle" x="454" y="-230.3" font-family="Times,serif" font-size="14.00">IdfList</text>
</g>
<!-- N3 -->
<g id="node5" class="node">
<title>N3</title>
<polygon fill="none" stroke="black" points="292.5,-144 167.5,-144 167.5,-108 292.5,-108 292.5,-144"/>
<text text-anchor="middle" x="230" y="-122.3" font-family="Times,serif" font-size="14.00">VariableDeclaration</text>
</g>
<!-- N2&#45;&gt;N3 -->
<g id="edge4" class="edge">
<title>N2&#45;&gt;N3</title>
<path fill="none" stroke="black" d="M426.53,-220C389.25,-202.36 322.09,-170.58 276.78,-149.14"/>
<polygon fill="black" stroke="black" points="278.52,-146.09 267.98,-144.97 275.52,-152.41 278.52,-146.09"/>
</g>
<!-- N7 -->
<g id="node9" class="node">
<title>N7</title>
<polygon fill="none" stroke="black" points="516.5,-144 391.5,-144 391.5,-108 516.5,-108 516.5,-144"/>
<text text-anchor="middle" x="454" y="-122.3" font-family="Times,serif" font-size="14.00">VariableDeclaration</text>
</g>
<!-- N2&#45;&gt;N7 -->
<g id="edge8" class="edge">
<title>N2&#45;&gt;N7</title>
<path fill="none" stroke="black" d="M454,-215.97C454,-199.76 454,-175.06 454,-155.79"/>
<polygon fill="black" stroke="black" points="457.5,-155.85 454,-145.85 450.5,-155.85 457.5,-155.85"/>
</g>
<!-- N4 -->
<g id="node2" class="node">
<title>N4</title>
<polygon fill="none" stroke="black" points="54,-36 0,-36 0,0 54,0 54,-36"/>
<text text-anchor="middle" x="27" y="-14.3" font-family="Times,serif" font-size="14.00">a</text>
</g>
<!-- N5 -->
<g id="node3" class="node">
<title>N5</title>
<polygon fill="none" stroke="black" points="180,-36 126,-36 126,0 180,0 180,-36"/>
<text text-anchor="middle" x="153" y="-14.3" font-family="Times,serif" font-size="14.00">int</text>
</g>
<!-- N6 -->
<g id="node4" class="node">
<title>N6</title>
<polygon fill="none" stroke="black" points="306,-36 252,-36 252,0 306,0 306,-36"/>
<text text-anchor="middle" x="279" y="-14.3" font-family="Times,serif" font-size="14.00">1</text>
</g>
<!-- N3&#45;&gt;N4 -->
<g id="edge1" class="edge">
<title>N3&#45;&gt;N4</title>
<path fill="none" stroke="black" d="M196.93,-107.73C160.58,-88.75 102.3,-58.32 64.33,-38.49"/>
<polygon fill="black" stroke="black" points="66.02,-35.43 55.54,-33.9 62.78,-41.63 66.02,-35.43"/>
</g>
<!-- N3&#45;&gt;N5 -->
<g id="edge2" class="edge">
<title>N3&#45;&gt;N5</title>
<path fill="none" stroke="black" d="M217.63,-107.97C205.41,-91.15 186.54,-65.17 172.34,-45.62"/>
<polygon fill="black" stroke="black" points="175.19,-43.6 166.49,-37.57 169.53,-47.71 175.19,-43.6"/>
</g>
<!-- N3&#45;&gt;N6 -->
<g id="edge3" class="edge">
<title>N3&#45;&gt;N6</title>
<path fill="none" stroke="black" d="M237.87,-107.97C245.51,-91.45 257.22,-66.12 266.19,-46.7"/>
<polygon fill="black" stroke="black" points="269.33,-48.26 270.35,-37.71 262.98,-45.32 269.33,-48.26"/>
</g>
<!-- N8 -->
<g id="node6" class="node">
<title>N8</title>
<polygon fill="none" stroke="black" points="432,-36 378,-36 378,0 432,0 432,-36"/>
<text text-anchor="middle" x="405" y="-14.3" font-family="Times,serif" font-size="14.00">b</text>
</g>
<!-- N9 -->
<g id="node7" class="node">
<title>N9</title>
<polygon fill="none" stroke="black" points="558,-36 504,-36 504,0 558,0 558,-36"/>
<text text-anchor="middle" x="531" y="-14.3" font-family="Times,serif" font-size="14.00">int</text>
</g>
<!-- N10 -->
<g id="node8" class="node">
<title>N10</title>
<polygon fill="none" stroke="black" points="684,-36 630,-36 630,0 684,0 684,-36"/>
<text text-anchor="middle" x="657" y="-14.3" font-family="Times,serif" font-size="14.00">2</text>
</g>
<!-- N7&#45;&gt;N8 -->
<g id="edge5" class="edge">
<title>N7&#45;&gt;N8</title>
<path fill="none" stroke="black" d="M446.13,-107.97C438.49,-91.45 426.78,-66.12 417.81,-46.7"/>
<polygon fill="black" stroke="black" points="421.02,-45.32 413.65,-37.71 414.67,-48.26 421.02,-45.32"/>
</g>
<!-- N7&#45;&gt;N9 -->
<g id="edge6" class="edge">
<title>N7&#45;&gt;N9</title>
<path fill="none" stroke="black" d="M466.37,-107.97C478.59,-91.15 497.46,-65.17 511.66,-45.62"/>
<polygon fill="black" stroke="black" points="514.47,-47.71 517.51,-37.57 508.81,-43.6 514.47,-47.71"/>
</g>
<!-- N7&#45;&gt;N10 -->
<g id="edge7" class="edge">
<title>N7&#45;&gt;N10</title>
<path fill="none" stroke="black" d="M487.07,-107.73C523.42,-88.75 581.7,-58.32 619.67,-38.49"/>
<polygon fill="black" stroke="black" points="621.22,-41.63 628.46,-33.9 617.98,-35.43 621.22,-41.63"/>
</g>
<!-- N12 -->
<g id="node10" class="node">
<title>N12</title>
<polygon fill="none" stroke="black" points="643,-144 589,-144 589,-108 643,-108 643,-144"/>
<text text-anchor="middle" x="616" y="-122.3" font-family="Times,serif" font-size="14.00">1</text>
</g>
<!-- N13 -->
<g id="node11" class="node">
<title>N13</title>
<polygon fill="none" stroke="black" points="769,-144 715,-144 715,-108 769,-108 769,-144"/>
<text text-anchor="middle" x="742" y="-122.3" font-family="Times,serif" font-size="14.00">2</text>
</g>
<!-- N11 -->
<g id="node12" class="node">
<title>N11</title>
<polygon fill="none" stroke="black" points="643,-252 589,-252 589,-216 643,-216 643,-252"/>
<text text-anchor="middle" x="616" y="-230.3" font-family="Times,serif" font-size="14.00">+</text>
</g>
<!-- N11&#45;&gt;N12 -->
<g id="edge9" class="edge">
<title>N11&#45;&gt;N12</title>
<path fill="none" stroke="black" d="M616,-215.97C616,-199.76 616,-175.06 616,-155.79"/>
<polygon fill="black" stroke="black" points="619.5,-155.85 616,-145.85 612.5,-155.85 619.5,-155.85"/>
</g>
<!-- N11&#45;&gt;N13 -->
<g id="edge10" class="edge">
<title>N11&#45;&gt;N13</title>
<path fill="none" stroke="black" d="M636.52,-215.73C657.21,-198.33 689.33,-171.31 712.69,-151.66"/>
<polygon fill="black" stroke="black" points="714.93,-154.35 720.33,-145.23 710.42,-148.99 714.93,-154.35"/>
</g>
<!-- N1 -->
<g id="node13" class="node">
<title>N1</title>
<polygon fill="none" stroke="black" points="585.5,-360 484.5,-360 484.5,-324 585.5,-324 585.5,-360"/>
<text text-anchor="middle" x="535" y="-338.3" font-family="Times,serif" font-size="14.00">Declarationlists</text>
</g>
<!-- N1&#45;&gt;N2 -->
<g id="edge11" class="edge">
<title>N1&#45;&gt;N2</title>
<path fill="none" stroke="black" d="M521.99,-323.97C509.07,-307.07 489.1,-280.94 474.14,-261.36"/>
<polygon fill="black" stroke="black" points="477.02,-259.36 468.17,-253.54 471.46,-263.61 477.02,-259.36"/>
</g>
<!-- N1&#45;&gt;N11 -->
<g id="edge12" class="edge">
<title>N1&#45;&gt;N11</title>
<path fill="none" stroke="black" d="M548.01,-323.97C560.93,-307.07 580.9,-280.94 595.86,-261.36"/>
<polygon fill="black" stroke="black" points="598.54,-263.61 601.83,-253.54 592.98,-259.36 598.54,-263.61"/>
</g>
<!-- N0 -->
<g id="node14" class="node">
<title>N0</title>
<polygon fill="none" stroke="black" points="567,-468 503,-468 503,-432 567,-432 567,-468"/>
<text text-anchor="middle" x="535" y="-446.3" font-family="Times,serif" font-size="14.00">Program</text>
</g>
<!-- N0&#45;&gt;N1 -->
<g id="edge13" class="edge">
<title>N0&#45;&gt;N1</title>
<path fill="none" stroke="black" d="M535,-431.97C535,-415.76 535,-391.06 535,-371.79"/>
<polygon fill="black" stroke="black" points="538.5,-371.85 535,-361.85 531.5,-371.85 538.5,-371.85"/>
</g>
</g>
</svg>
