<?xml version="1.0" encoding="UTF-8" standalone="no"?>
<!DOCTYPE svg PUBLIC "-//W3C//DTD SVG 1.1//EN"
 "http://www.w3.org/Graphics/SVG/1.1/DTD/svg11.dtd">
<!-- Generated by graphviz version 2.43.0 (0)
 -->
<!-- Title: ast Pages: 1 -->
<svg width="1269pt" height="908pt"
 viewBox="0.00 0.00 1269.00 908.00" xmlns="http://www.w3.org/2000/svg" xmlns:xlink="http://www.w3.org/1999/xlink">
<g id="graph0" class="graph" transform="scale(1 1) rotate(0) translate(4 904)">
<title>ast</title>
<polygon fill="white" stroke="transparent" points="-4,4 -4,-904 1265,-904 1265,4 -4,4"/>
<!-- N2 -->
<g id="node1" class="node">
<title>N2</title>
<polygon fill="none" stroke="black" points="562.5,-684 499.5,-684 499.5,-648 562.5,-648 562.5,-684"/>
<text text-anchor="middle" x="531" y="-662.3" font-family="Times,serif" font-size="14.00">IdfList</text>
</g>
<!-- N3 -->
<g id="node5" class="node">
<title>N3</title>
<polygon fill="none" stroke="black" points="295,-576 137,-576 137,-540 295,-540 295,-576"/>
<text text-anchor="middle" x="216" y="-554.3" font-family="Times,serif" font-size="14.00">VariableDeclaration</text>
</g>
<!-- N2&#45;&gt;N3 -->
<g id="edge4" class="edge">
<title>N2&#45;&gt;N3</title>
<path fill="none" stroke="black" d="M499.35,-654.35C447.31,-636.84 342.79,-601.67 276.28,-579.28"/>
<polygon fill="black" stroke="black" points="277.35,-575.95 266.75,-576.08 275.11,-582.58 277.35,-575.95"/>
</g>
<!-- N7 -->
<g id="node11" class="node">
<title>N7</title>
<polygon fill="none" stroke="black" points="610,-576 452,-576 452,-540 610,-540 610,-576"/>
<text text-anchor="middle" x="531" y="-554.3" font-family="Times,serif" font-size="14.00">VariableDeclaration</text>
</g>
<!-- N2&#45;&gt;N7 -->
<g id="edge10" class="edge">
<title>N2&#45;&gt;N7</title>
<path fill="none" stroke="black" d="M531,-647.97C531,-631.38 531,-605.88 531,-586.43"/>
<polygon fill="black" stroke="black" points="534.5,-586.34 531,-576.34 527.5,-586.34 534.5,-586.34"/>
</g>
<!-- N4 -->
<g id="node2" class="node">
<title>N4</title>
<polygon fill="none" stroke="black" points="54,-468 0,-468 0,-432 54,-432 54,-468"/>
<text text-anchor="middle" x="27" y="-446.3" font-family="Times,serif" font-size="14.00">a</text>
</g>
<!-- N5 -->
<g id="node3" class="node">
<title>N5</title>
<polygon fill="none" stroke="black" points="180,-468 126,-468 126,-432 180,-432 180,-468"/>
<text text-anchor="middle" x="153" y="-446.3" font-family="Times,serif" font-size="14.00">int</text>
</g>
<!-- N6 -->
<g id="node4" class="node">
<title>N6</title>
<polygon fill="none" stroke="black" points="306,-468 252,-468 252,-432 306,-432 306,-468"/>
<text text-anchor="middle" x="279" y="-446.3" font-family="Times,serif" font-size="14.00">10</text>
</g>
<!-- N3&#45;&gt;N4 -->
<g id="edge1" class="edge">
<title>N3&#45;&gt;N4</title>
<path fill="none" stroke="black" d="M185.63,-539.97C152.3,-521.27 98.81,-491.27 63.29,-471.35"/>
<polygon fill="black" stroke="black" points="64.66,-468.11 54.22,-466.27 61.23,-474.21 64.66,-468.11"/>
</g>
<!-- N3&#45;&gt;N5 -->
<g id="edge2" class="edge">
<title>N3&#45;&gt;N5</title>
<path fill="none" stroke="black" d="M205.88,-539.97C195.79,-522.99 180.16,-496.7 168.51,-477.09"/>
<polygon fill="black" stroke="black" points="171.42,-475.15 163.31,-468.34 165.41,-478.73 171.42,-475.15"/>
</g>
<!-- N3&#45;&gt;N6 -->
<g id="edge3" class="edge">
<title>N3&#45;&gt;N6</title>
<path fill="none" stroke="black" d="M226.12,-539.97C236.21,-522.99 251.84,-496.7 263.49,-477.09"/>
<polygon fill="black" stroke="black" points="266.59,-478.73 268.69,-468.34 260.58,-475.15 266.59,-478.73"/>
</g>
<!-- N8 -->
<g id="node6" class="node">
<title>N8</title>
<polygon fill="none" stroke="black" points="432,-468 378,-468 378,-432 432,-432 432,-468"/>
<text text-anchor="middle" x="405" y="-446.3" font-family="Times,serif" font-size="14.00">b</text>
</g>
<!-- N9 -->
<g id="node7" class="node">
<title>N9</title>
<polygon fill="none" stroke="black" points="558,-468 504,-468 504,-432 558,-432 558,-468"/>
<text text-anchor="middle" x="531" y="-446.3" font-family="Times,serif" font-size="14.00">int</text>
</g>
<!-- N11 -->
<g id="node8" class="node">
<title>N11</title>
<polygon fill="none" stroke="black" points="621,-360 567,-360 567,-324 621,-324 621,-360"/>
<text text-anchor="middle" x="594" y="-338.3" font-family="Times,serif" font-size="14.00">5</text>
</g>
<!-- N12 -->
<g id="node9" class="node">
<title>N12</title>
<polygon fill="none" stroke="black" points="747,-360 693,-360 693,-324 747,-324 747,-360"/>
<text text-anchor="middle" x="720" y="-338.3" font-family="Times,serif" font-size="14.00">a</text>
</g>
<!-- N10 -->
<g id="node10" class="node">
<title>N10</title>
<polygon fill="none" stroke="black" points="684,-468 630,-468 630,-432 684,-432 684,-468"/>
<text text-anchor="middle" x="657" y="-446.3" font-family="Times,serif" font-size="14.00">+</text>
</g>
<!-- N10&#45;&gt;N11 -->
<g id="edge5" class="edge">
<title>N10&#45;&gt;N11</title>
<path fill="none" stroke="black" d="M646.88,-431.97C636.79,-414.99 621.16,-388.7 609.51,-369.09"/>
<polygon fill="black" stroke="black" points="612.42,-367.15 604.31,-360.34 606.41,-370.73 612.42,-367.15"/>
</g>
<!-- N10&#45;&gt;N12 -->
<g id="edge6" class="edge">
<title>N10&#45;&gt;N12</title>
<path fill="none" stroke="black" d="M667.12,-431.97C677.21,-414.99 692.84,-388.7 704.49,-369.09"/>
<polygon fill="black" stroke="black" points="707.59,-370.73 709.69,-360.34 701.58,-367.15 707.59,-370.73"/>
</g>
<!-- N7&#45;&gt;N8 -->
<g id="edge7" class="edge">
<title>N7&#45;&gt;N8</title>
<path fill="none" stroke="black" d="M510.76,-539.97C489.85,-522.38 457.04,-494.78 433.51,-474.99"/>
<polygon fill="black" stroke="black" points="435.52,-472.1 425.61,-468.34 431.01,-477.46 435.52,-472.1"/>
</g>
<!-- N7&#45;&gt;N9 -->
<g id="edge8" class="edge">
<title>N7&#45;&gt;N9</title>
<path fill="none" stroke="black" d="M531,-539.97C531,-523.38 531,-497.88 531,-478.43"/>
<polygon fill="black" stroke="black" points="534.5,-478.34 531,-468.34 527.5,-478.34 534.5,-478.34"/>
</g>
<!-- N7&#45;&gt;N10 -->
<g id="edge9" class="edge">
<title>N7&#45;&gt;N10</title>
<path fill="none" stroke="black" d="M551.24,-539.97C572.15,-522.38 604.96,-494.78 628.49,-474.99"/>
<polygon fill="black" stroke="black" points="630.99,-477.46 636.39,-468.34 626.48,-472.1 630.99,-477.46"/>
</g>
<!-- N13 -->
<g id="node12" class="node">
<title>N13</title>
<polygon fill="none" stroke="black" points="770,-684 692,-684 692,-648 770,-648 770,-684"/>
<text text-anchor="middle" x="731" y="-662.3" font-family="Times,serif" font-size="14.00">ExprSeq</text>
</g>
<!-- N14 -->
<g id="node26" class="node">
<title>N14</title>
<polygon fill="none" stroke="black" points="823.5,-576 752.5,-576 752.5,-540 823.5,-540 823.5,-576"/>
<text text-anchor="middle" x="788" y="-554.3" font-family="Times,serif" font-size="14.00">Lvalues</text>
</g>
<!-- N13&#45;&gt;N14 -->
<g id="edge24" class="edge">
<title>N13&#45;&gt;N14</title>
<path fill="none" stroke="black" d="M740.16,-647.97C749.24,-631.07 763.3,-604.94 773.83,-585.36"/>
<polygon fill="black" stroke="black" points="777.02,-586.81 778.68,-576.34 770.86,-583.49 777.02,-586.81"/>
</g>
<!-- N15 -->
<g id="node13" class="node">
<title>N15</title>
<polygon fill="none" stroke="black" points="819.5,-468 756.5,-468 756.5,-432 819.5,-432 819.5,-468"/>
<text text-anchor="middle" x="788" y="-446.3" font-family="Times,serif" font-size="14.00">IdfList</text>
</g>
<!-- N16 -->
<g id="node14" class="node">
<title>N16</title>
<polygon fill="none" stroke="black" points="946,-468 892,-468 892,-432 946,-432 946,-468"/>
<text text-anchor="middle" x="919" y="-446.3" font-family="Times,serif" font-size="14.00">Or</text>
</g>
<!-- N17 -->
<g id="node15" class="node">
<title>N17</title>
<polygon fill="none" stroke="black" points="946,-360 892,-360 892,-324 946,-324 946,-360"/>
<text text-anchor="middle" x="919" y="-338.3" font-family="Times,serif" font-size="14.00">And</text>
</g>
<!-- N16&#45;&gt;N17 -->
<g id="edge21" class="edge">
<title>N16&#45;&gt;N17</title>
<path fill="none" stroke="black" d="M919,-431.97C919,-415.38 919,-389.88 919,-370.43"/>
<polygon fill="black" stroke="black" points="922.5,-370.34 919,-360.34 915.5,-370.34 922.5,-370.34"/>
</g>
<!-- N18 -->
<g id="node18" class="node">
<title>N18</title>
<polygon fill="none" stroke="black" points="883,-252 829,-252 829,-216 883,-216 883,-252"/>
<text text-anchor="middle" x="856" y="-230.3" font-family="Times,serif" font-size="14.00">&#45;</text>
</g>
<!-- N17&#45;&gt;N18 -->
<g id="edge13" class="edge">
<title>N17&#45;&gt;N18</title>
<path fill="none" stroke="black" d="M908.88,-323.97C898.79,-306.99 883.16,-280.7 871.51,-261.09"/>
<polygon fill="black" stroke="black" points="874.42,-259.15 866.31,-252.34 868.41,-262.73 874.42,-259.15"/>
</g>
<!-- N21 -->
<g id="node25" class="node">
<title>N21</title>
<polygon fill="none" stroke="black" points="1009,-252 955,-252 955,-216 1009,-216 1009,-252"/>
<text text-anchor="middle" x="982" y="-230.3" font-family="Times,serif" font-size="14.00">&gt;</text>
</g>
<!-- N17&#45;&gt;N21 -->
<g id="edge20" class="edge">
<title>N17&#45;&gt;N21</title>
<path fill="none" stroke="black" d="M929.12,-323.97C939.21,-306.99 954.84,-280.7 966.49,-261.09"/>
<polygon fill="black" stroke="black" points="969.59,-262.73 971.69,-252.34 963.58,-259.15 969.59,-262.73"/>
</g>
<!-- N19 -->
<g id="node16" class="node">
<title>N19</title>
<polygon fill="none" stroke="black" points="757,-144 703,-144 703,-108 757,-108 757,-144"/>
<text text-anchor="middle" x="730" y="-122.3" font-family="Times,serif" font-size="14.00">1</text>
</g>
<!-- N20 -->
<g id="node17" class="node">
<title>N20</title>
<polygon fill="none" stroke="black" points="883,-144 829,-144 829,-108 883,-108 883,-144"/>
<text text-anchor="middle" x="856" y="-122.3" font-family="Times,serif" font-size="14.00">1</text>
</g>
<!-- N18&#45;&gt;N19 -->
<g id="edge11" class="edge">
<title>N18&#45;&gt;N19</title>
<path fill="none" stroke="black" d="M835.76,-215.97C814.85,-198.38 782.04,-170.78 758.51,-150.99"/>
<polygon fill="black" stroke="black" points="760.52,-148.1 750.61,-144.34 756.01,-153.46 760.52,-148.1"/>
</g>
<!-- N18&#45;&gt;N20 -->
<g id="edge12" class="edge">
<title>N18&#45;&gt;N20</title>
<path fill="none" stroke="black" d="M856,-215.97C856,-199.38 856,-173.88 856,-154.43"/>
<polygon fill="black" stroke="black" points="859.5,-154.34 856,-144.34 852.5,-154.34 859.5,-154.34"/>
</g>
<!-- N23 -->
<g id="node19" class="node">
<title>N23</title>
<polygon fill="none" stroke="black" points="883,-36 829,-36 829,0 883,0 883,-36"/>
<text text-anchor="middle" x="856" y="-14.3" font-family="Times,serif" font-size="14.00">1</text>
</g>
<!-- N24 -->
<g id="node20" class="node">
<title>N24</title>
<polygon fill="none" stroke="black" points="1009,-36 955,-36 955,0 1009,0 1009,-36"/>
<text text-anchor="middle" x="982" y="-14.3" font-family="Times,serif" font-size="14.00">1</text>
</g>
<!-- N22 -->
<g id="node21" class="node">
<title>N22</title>
<polygon fill="none" stroke="black" points="1009,-144 955,-144 955,-108 1009,-108 1009,-144"/>
<text text-anchor="middle" x="982" y="-122.3" font-family="Times,serif" font-size="14.00">+</text>
</g>
<!-- N22&#45;&gt;N23 -->
<g id="edge14" class="edge">
<title>N22&#45;&gt;N23</title>
<path fill="none" stroke="black" d="M961.76,-107.97C940.85,-90.38 908.04,-62.78 884.51,-42.99"/>
<polygon fill="black" stroke="black" points="886.52,-40.1 876.61,-36.34 882.01,-45.46 886.52,-40.1"/>
</g>
<!-- N22&#45;&gt;N24 -->
<g id="edge15" class="edge">
<title>N22&#45;&gt;N24</title>
<path fill="none" stroke="black" d="M982,-107.97C982,-91.38 982,-65.88 982,-46.43"/>
<polygon fill="black" stroke="black" points="985.5,-46.34 982,-36.34 978.5,-46.34 985.5,-46.34"/>
</g>
<!-- N26 -->
<g id="node22" class="node">
<title>N26</title>
<polygon fill="none" stroke="black" points="1135,-36 1081,-36 1081,0 1135,0 1135,-36"/>
<text text-anchor="middle" x="1108" y="-14.3" font-family="Times,serif" font-size="14.00">1</text>
</g>
<!-- N27 -->
<g id="node23" class="node">
<title>N27</title>
<polygon fill="none" stroke="black" points="1261,-36 1207,-36 1207,0 1261,0 1261,-36"/>
<text text-anchor="middle" x="1234" y="-14.3" font-family="Times,serif" font-size="14.00">1</text>
</g>
<!-- N25 -->
<g id="node24" class="node">
<title>N25</title>
<polygon fill="none" stroke="black" points="1135,-144 1081,-144 1081,-108 1135,-108 1135,-144"/>
<text text-anchor="middle" x="1108" y="-122.3" font-family="Times,serif" font-size="14.00">+</text>
</g>
<!-- N25&#45;&gt;N26 -->
<g id="edge16" class="edge">
<title>N25&#45;&gt;N26</title>
<path fill="none" stroke="black" d="M1108,-107.97C1108,-91.38 1108,-65.88 1108,-46.43"/>
<polygon fill="black" stroke="black" points="1111.5,-46.34 1108,-36.34 1104.5,-46.34 1111.5,-46.34"/>
</g>
<!-- N25&#45;&gt;N27 -->
<g id="edge17" class="edge">
<title>N25&#45;&gt;N27</title>
<path fill="none" stroke="black" d="M1128.24,-107.97C1149.15,-90.38 1181.96,-62.78 1205.49,-42.99"/>
<polygon fill="black" stroke="black" points="1207.99,-45.46 1213.39,-36.34 1203.48,-40.1 1207.99,-45.46"/>
</g>
<!-- N21&#45;&gt;N22 -->
<g id="edge18" class="edge">
<title>N21&#45;&gt;N22</title>
<path fill="none" stroke="black" d="M982,-215.97C982,-199.38 982,-173.88 982,-154.43"/>
<polygon fill="black" stroke="black" points="985.5,-154.34 982,-144.34 978.5,-154.34 985.5,-154.34"/>
</g>
<!-- N21&#45;&gt;N25 -->
<g id="edge19" class="edge">
<title>N21&#45;&gt;N25</title>
<path fill="none" stroke="black" d="M1002.24,-215.97C1023.15,-198.38 1055.96,-170.78 1079.49,-150.99"/>
<polygon fill="black" stroke="black" points="1081.99,-153.46 1087.39,-144.34 1077.48,-148.1 1081.99,-153.46"/>
</g>
<!-- N14&#45;&gt;N15 -->
<g id="edge22" class="edge">
<title>N14&#45;&gt;N15</title>
<path fill="none" stroke="black" d="M788,-539.97C788,-523.38 788,-497.88 788,-478.43"/>
<polygon fill="black" stroke="black" points="791.5,-478.34 788,-468.34 784.5,-478.34 791.5,-478.34"/>
</g>
<!-- N14&#45;&gt;N16 -->
<g id="edge23" class="edge">
<title>N14&#45;&gt;N16</title>
<path fill="none" stroke="black" d="M809.05,-539.97C830.88,-522.3 865.19,-494.54 889.68,-474.73"/>
<polygon fill="black" stroke="black" points="892,-477.35 897.57,-468.34 887.59,-471.91 892,-477.35"/>
</g>
<!-- N1 -->
<g id="node27" class="node">
<title>N1</title>
<polygon fill="none" stroke="black" points="666.5,-792 537.5,-792 537.5,-756 666.5,-756 666.5,-792"/>
<text text-anchor="middle" x="602" y="-770.3" font-family="Times,serif" font-size="14.00">Declarationlists</text>
</g>
<!-- N1&#45;&gt;N2 -->
<g id="edge25" class="edge">
<title>N1&#45;&gt;N2</title>
<path fill="none" stroke="black" d="M590.59,-755.97C579.17,-738.92 561.45,-712.46 548.3,-692.82"/>
<polygon fill="black" stroke="black" points="551.09,-690.7 542.61,-684.34 545.27,-694.6 551.09,-690.7"/>
</g>
<!-- N1&#45;&gt;N13 -->
<g id="edge26" class="edge">
<title>N1&#45;&gt;N13</title>
<path fill="none" stroke="black" d="M622.73,-755.97C644.23,-738.3 678.01,-710.54 702.12,-690.73"/>
<polygon fill="black" stroke="black" points="704.39,-693.39 709.9,-684.34 699.95,-687.99 704.39,-693.39"/>
</g>
<!-- N0 -->
<g id="node28" class="node">
<title>N0</title>
<polygon fill="none" stroke="black" points="641.5,-900 562.5,-900 562.5,-864 641.5,-864 641.5,-900"/>
<text text-anchor="middle" x="602" y="-878.3" font-family="Times,serif" font-size="14.00">Program</text>
</g>
<!-- N0&#45;&gt;N1 -->
<g id="edge27" class="edge">
<title>N0&#45;&gt;N1</title>
<path fill="none" stroke="black" d="M602,-863.97C602,-847.38 602,-821.88 602,-802.43"/>
<polygon fill="black" stroke="black" points="605.5,-802.34 602,-792.34 598.5,-802.34 605.5,-802.34"/>
</g>
</g>
</svg>
