<?xml version="1.0" encoding="UTF-8" standalone="no"?>
<!DOCTYPE svg PUBLIC "-//W3C//DTD SVG 1.1//EN"
 "http://www.w3.org/Graphics/SVG/1.1/DTD/svg11.dtd">
<!-- Generated by graphviz version 7.0.2 (20221119.0110)
 -->
<!-- Title: ast Pages: 1 -->
<svg width="1367pt" height="800pt"
 viewBox="0.00 0.00 1367.00 800.00" xmlns="http://www.w3.org/2000/svg" xmlns:xlink="http://www.w3.org/1999/xlink">
<g id="graph0" class="graph" transform="scale(1 1) rotate(0) translate(4 796)">
<title>ast</title>
<polygon fill="white" stroke="none" points="-4,4 -4,-796 1363,-796 1363,4 -4,4"/>
<!-- N2 -->
<g id="node1" class="node">
<title>N2</title>
<polygon fill="none" stroke="black" points="514,-576 460,-576 460,-540 514,-540 514,-576"/>
<text text-anchor="middle" x="487" y="-554.3" font-family="Times,serif" font-size="14.00">IdfList</text>
</g>
<!-- N3 -->
<g id="node6" class="node">
<title>N3</title>
<polygon fill="none" stroke="black" points="215.5,-468 108.5,-468 108.5,-432 215.5,-432 215.5,-468"/>
<text text-anchor="middle" x="162" y="-446.3" font-family="Times,serif" font-size="14.00">TypeDeclaration</text>
</g>
<!-- N2&#45;&gt;N3 -->
<g id="edge5" class="edge">
<title>N2&#45;&gt;N3</title>
<path fill="none" stroke="black" d="M459.57,-548.05C408.41,-531.37 297.18,-495.09 226.14,-471.92"/>
<polygon fill="black" stroke="black" points="227.57,-468.7 216.97,-468.93 225.39,-475.36 227.57,-468.7"/>
</g>
<!-- N8 -->
<g id="node9" class="node">
<title>N8</title>
<polygon fill="none" stroke="black" points="446.5,-468 339.5,-468 339.5,-432 446.5,-432 446.5,-468"/>
<text text-anchor="middle" x="393" y="-446.3" font-family="Times,serif" font-size="14.00">TypeDeclaration</text>
</g>
<!-- N2&#45;&gt;N8 -->
<g id="edge8" class="edge">
<title>N2&#45;&gt;N8</title>
<path fill="none" stroke="black" d="M471.9,-539.97C456.78,-522.92 433.31,-496.46 415.9,-476.82"/>
<polygon fill="black" stroke="black" points="418.64,-474.63 409.38,-469.47 413.4,-479.28 418.64,-474.63"/>
</g>
<!-- N11 -->
<g id="node15" class="node">
<title>N11</title>
<polygon fill="none" stroke="black" points="643.5,-468 518.5,-468 518.5,-432 643.5,-432 643.5,-468"/>
<text text-anchor="middle" x="581" y="-446.3" font-family="Times,serif" font-size="14.00">VariableDeclaration</text>
</g>
<!-- N2&#45;&gt;N11 -->
<g id="edge14" class="edge">
<title>N2&#45;&gt;N11</title>
<path fill="none" stroke="black" d="M502.1,-539.97C517.22,-522.92 540.69,-496.46 558.1,-476.82"/>
<polygon fill="black" stroke="black" points="560.6,-479.28 564.62,-469.47 555.36,-474.63 560.6,-479.28"/>
</g>
<!-- N4 -->
<g id="node2" class="node">
<title>N4</title>
<polygon fill="none" stroke="black" points="54,-360 0,-360 0,-324 54,-324 54,-360"/>
<text text-anchor="middle" x="27" y="-338.3" font-family="Times,serif" font-size="14.00">rec</text>
</g>
<!-- N6 -->
<g id="node3" class="node">
<title>N6</title>
<polygon fill="none" stroke="black" points="126,-252 72,-252 72,-216 126,-216 126,-252"/>
<text text-anchor="middle" x="99" y="-230.3" font-family="Times,serif" font-size="14.00">val</text>
</g>
<!-- N7 -->
<g id="node4" class="node">
<title>N7</title>
<polygon fill="none" stroke="black" points="252,-252 198,-252 198,-216 252,-216 252,-252"/>
<text text-anchor="middle" x="225" y="-230.3" font-family="Times,serif" font-size="14.00">int</text>
</g>
<!-- N5 -->
<g id="node5" class="node">
<title>N5</title>
<polygon fill="none" stroke="black" points="197.5,-360 126.5,-360 126.5,-324 197.5,-324 197.5,-360"/>
<text text-anchor="middle" x="162" y="-338.3" font-family="Times,serif" font-size="14.00">TypeField</text>
</g>
<!-- N5&#45;&gt;N6 -->
<g id="edge1" class="edge">
<title>N5&#45;&gt;N6</title>
<path fill="none" stroke="black" d="M151.88,-323.97C141.97,-307.3 126.72,-281.65 115.14,-262.16"/>
<polygon fill="black" stroke="black" points="118.2,-260.45 110.08,-253.64 112.18,-264.03 118.2,-260.45"/>
</g>
<!-- N5&#45;&gt;N7 -->
<g id="edge2" class="edge">
<title>N5&#45;&gt;N7</title>
<path fill="none" stroke="black" d="M172.12,-323.97C182.03,-307.3 197.28,-281.65 208.86,-262.16"/>
<polygon fill="black" stroke="black" points="211.82,-264.03 213.92,-253.64 205.8,-260.45 211.82,-264.03"/>
</g>
<!-- N3&#45;&gt;N4 -->
<g id="edge3" class="edge">
<title>N3&#45;&gt;N4</title>
<path fill="none" stroke="black" d="M140.01,-431.73C117.65,-414.18 82.82,-386.83 57.74,-367.14"/>
<polygon fill="black" stroke="black" points="60.2,-364.62 50.17,-361.19 55.88,-370.12 60.2,-364.62"/>
</g>
<!-- N3&#45;&gt;N5 -->
<g id="edge4" class="edge">
<title>N3&#45;&gt;N5</title>
<path fill="none" stroke="black" d="M162,-431.97C162,-415.76 162,-391.06 162,-371.79"/>
<polygon fill="black" stroke="black" points="165.5,-371.85 162,-361.85 158.5,-371.85 165.5,-371.85"/>
</g>
<!-- N9 -->
<g id="node7" class="node">
<title>N9</title>
<polygon fill="none" stroke="black" points="324.5,-360 269.5,-360 269.5,-324 324.5,-324 324.5,-360"/>
<text text-anchor="middle" x="297" y="-338.3" font-family="Times,serif" font-size="14.00">rec_arr</text>
</g>
<!-- N10 -->
<g id="node8" class="node">
<title>N10</title>
<polygon fill="none" stroke="black" points="451,-360 397,-360 397,-324 451,-324 451,-360"/>
<text text-anchor="middle" x="424" y="-338.3" font-family="Times,serif" font-size="14.00">rec</text>
</g>
<!-- N8&#45;&gt;N9 -->
<g id="edge6" class="edge">
<title>N8&#45;&gt;N9</title>
<path fill="none" stroke="black" d="M377.58,-431.97C362.13,-414.92 338.17,-388.46 320.39,-368.82"/>
<polygon fill="black" stroke="black" points="323.03,-366.53 313.72,-361.46 317.84,-371.22 323.03,-366.53"/>
</g>
<!-- N8&#45;&gt;N10 -->
<g id="edge7" class="edge">
<title>N8&#45;&gt;N10</title>
<path fill="none" stroke="black" d="M397.98,-431.97C402.77,-415.61 410.08,-390.59 415.74,-371.24"/>
<polygon fill="black" stroke="black" points="419.06,-372.37 418.5,-361.79 412.34,-370.41 419.06,-372.37"/>
</g>
<!-- N12 -->
<g id="node10" class="node">
<title>N12</title>
<polygon fill="none" stroke="black" points="577,-360 523,-360 523,-324 577,-324 577,-360"/>
<text text-anchor="middle" x="550" y="-338.3" font-family="Times,serif" font-size="14.00">table</text>
</g>
<!-- N14 -->
<g id="node11" class="node">
<title>N14</title>
<polygon fill="none" stroke="black" points="579.5,-252 524.5,-252 524.5,-216 579.5,-216 579.5,-252"/>
<text text-anchor="middle" x="552" y="-230.3" font-family="Times,serif" font-size="14.00">rec_arr</text>
</g>
<!-- N15 -->
<g id="node12" class="node">
<title>N15</title>
<polygon fill="none" stroke="black" points="706,-252 652,-252 652,-216 706,-216 706,-252"/>
<text text-anchor="middle" x="679" y="-230.3" font-family="Times,serif" font-size="14.00">10</text>
</g>
<!-- N16 -->
<g id="node13" class="node">
<title>N16</title>
<polygon fill="none" stroke="black" points="832,-252 778,-252 778,-216 832,-216 832,-252"/>
<text text-anchor="middle" x="805" y="-230.3" font-family="Times,serif" font-size="14.00">0</text>
</g>
<!-- N13 -->
<g id="node14" class="node">
<title>N13</title>
<polygon fill="none" stroke="black" points="708.5,-360 649.5,-360 649.5,-324 708.5,-324 708.5,-360"/>
<text text-anchor="middle" x="679" y="-338.3" font-family="Times,serif" font-size="14.00">Typeids</text>
</g>
<!-- N13&#45;&gt;N14 -->
<g id="edge9" class="edge">
<title>N13&#45;&gt;N14</title>
<path fill="none" stroke="black" d="M658.31,-323.73C637.37,-306.25 604.8,-279.07 581.23,-259.4"/>
<polygon fill="black" stroke="black" points="583.76,-256.95 573.84,-253.23 579.28,-262.32 583.76,-256.95"/>
</g>
<!-- N13&#45;&gt;N15 -->
<g id="edge10" class="edge">
<title>N13&#45;&gt;N15</title>
<path fill="none" stroke="black" d="M679,-323.97C679,-307.76 679,-283.06 679,-263.79"/>
<polygon fill="black" stroke="black" points="682.5,-263.85 679,-253.85 675.5,-263.85 682.5,-263.85"/>
</g>
<!-- N13&#45;&gt;N16 -->
<g id="edge11" class="edge">
<title>N13&#45;&gt;N16</title>
<path fill="none" stroke="black" d="M699.52,-323.73C720.21,-306.33 752.33,-279.31 775.69,-259.66"/>
<polygon fill="black" stroke="black" points="777.93,-262.35 783.33,-253.23 773.42,-256.99 777.93,-262.35"/>
</g>
<!-- N11&#45;&gt;N12 -->
<g id="edge12" class="edge">
<title>N11&#45;&gt;N12</title>
<path fill="none" stroke="black" d="M576.02,-431.97C571.23,-415.61 563.92,-390.59 558.26,-371.24"/>
<polygon fill="black" stroke="black" points="561.66,-370.41 555.5,-361.79 554.94,-372.37 561.66,-370.41"/>
</g>
<!-- N11&#45;&gt;N13 -->
<g id="edge13" class="edge">
<title>N11&#45;&gt;N13</title>
<path fill="none" stroke="black" d="M596.75,-431.97C612.58,-414.84 637.19,-388.22 655.37,-368.56"/>
<polygon fill="black" stroke="black" points="657.72,-371.17 661.94,-361.45 652.58,-366.42 657.72,-371.17"/>
</g>
<!-- N17 -->
<g id="node16" class="node">
<title>N17</title>
<polygon fill="none" stroke="black" points="822.5,-576 759.5,-576 759.5,-540 822.5,-540 822.5,-576"/>
<text text-anchor="middle" x="791" y="-554.3" font-family="Times,serif" font-size="14.00">ExprSeq</text>
</g>
<!-- N18 -->
<g id="node28" class="node">
<title>N18</title>
<polygon fill="none" stroke="black" points="961,-468 907,-468 907,-432 961,-432 961,-468"/>
<text text-anchor="middle" x="934" y="-446.3" font-family="Times,serif" font-size="14.00">For</text>
</g>
<!-- N17&#45;&gt;N18 -->
<g id="edge26" class="edge">
<title>N17&#45;&gt;N18</title>
<path fill="none" stroke="black" d="M814.29,-539.73C838.08,-522.1 875.19,-494.59 901.79,-474.88"/>
<polygon fill="black" stroke="black" points="903.55,-477.93 909.5,-469.16 899.38,-472.3 903.55,-477.93"/>
</g>
<!-- N19 -->
<g id="node17" class="node">
<title>N19</title>
<polygon fill="none" stroke="black" points="835,-360 781,-360 781,-324 835,-324 835,-360"/>
<text text-anchor="middle" x="808" y="-338.3" font-family="Times,serif" font-size="14.00">0</text>
</g>
<!-- N20 -->
<g id="node18" class="node">
<title>N20</title>
<polygon fill="none" stroke="black" points="961,-360 907,-360 907,-324 961,-324 961,-360"/>
<text text-anchor="middle" x="934" y="-338.3" font-family="Times,serif" font-size="14.00">9</text>
</g>
<!-- N22 -->
<g id="node19" class="node">
<title>N22</title>
<polygon fill="none" stroke="black" points="1043,-252 963,-252 963,-216 1043,-216 1043,-252"/>
<text text-anchor="middle" x="1003" y="-230.3" font-family="Times,serif" font-size="14.00">IdfExprList</text>
</g>
<!-- N23 -->
<g id="node20" class="node">
<title>N23</title>
<polygon fill="none" stroke="black" points="1030,-144 976,-144 976,-108 1030,-108 1030,-144"/>
<text text-anchor="middle" x="1003" y="-122.3" font-family="Times,serif" font-size="14.00">i</text>
</g>
<!-- N22&#45;&gt;N23 -->
<g id="edge15" class="edge">
<title>N22&#45;&gt;N23</title>
<path fill="none" stroke="black" d="M1003,-215.97C1003,-199.76 1003,-175.06 1003,-155.79"/>
<polygon fill="black" stroke="black" points="1006.5,-155.85 1003,-145.85 999.5,-155.85 1006.5,-155.85"/>
</g>
<!-- N25 -->
<g id="node21" class="node">
<title>N25</title>
<polygon fill="none" stroke="black" points="1164,-144 1110,-144 1110,-108 1164,-108 1164,-144"/>
<text text-anchor="middle" x="1137" y="-122.3" font-family="Times,serif" font-size="14.00">rec</text>
</g>
<!-- N26 -->
<g id="node22" class="node">
<title>N26</title>
<polygon fill="none" stroke="black" points="1301.5,-144 1236.5,-144 1236.5,-108 1301.5,-108 1301.5,-144"/>
<text text-anchor="middle" x="1269" y="-122.3" font-family="Times,serif" font-size="14.00">FieldList</text>
</g>
<!-- N27 -->
<g id="node23" class="node">
<title>N27</title>
<polygon fill="none" stroke="black" points="1233,-36 1179,-36 1179,0 1233,0 1233,-36"/>
<text text-anchor="middle" x="1206" y="-14.3" font-family="Times,serif" font-size="14.00">i</text>
</g>
<!-- N26&#45;&gt;N27 -->
<g id="edge16" class="edge">
<title>N26&#45;&gt;N27</title>
<path fill="none" stroke="black" d="M1258.88,-107.97C1248.97,-91.3 1233.72,-65.65 1222.14,-46.16"/>
<polygon fill="black" stroke="black" points="1225.2,-44.45 1217.08,-37.64 1219.18,-48.03 1225.2,-44.45"/>
</g>
<!-- N28 -->
<g id="node24" class="node">
<title>N28</title>
<polygon fill="none" stroke="black" points="1359,-36 1305,-36 1305,0 1359,0 1359,-36"/>
<text text-anchor="middle" x="1332" y="-14.3" font-family="Times,serif" font-size="14.00">val</text>
</g>
<!-- N26&#45;&gt;N28 -->
<g id="edge17" class="edge">
<title>N26&#45;&gt;N28</title>
<path fill="none" stroke="black" d="M1279.12,-107.97C1289.03,-91.3 1304.28,-65.65 1315.86,-46.16"/>
<polygon fill="black" stroke="black" points="1318.82,-48.03 1320.92,-37.64 1312.8,-44.45 1318.82,-48.03"/>
</g>
<!-- N24 -->
<g id="node25" class="node">
<title>N24</title>
<polygon fill="none" stroke="black" points="1174.5,-252 1115.5,-252 1115.5,-216 1174.5,-216 1174.5,-252"/>
<text text-anchor="middle" x="1145" y="-230.3" font-family="Times,serif" font-size="14.00">Typeids</text>
</g>
<!-- N24&#45;&gt;N25 -->
<g id="edge18" class="edge">
<title>N24&#45;&gt;N25</title>
<path fill="none" stroke="black" d="M1143.71,-215.97C1142.49,-199.76 1140.63,-175.06 1139.17,-155.79"/>
<polygon fill="black" stroke="black" points="1142.67,-155.56 1138.42,-145.85 1135.69,-156.08 1142.67,-155.56"/>
</g>
<!-- N24&#45;&gt;N26 -->
<g id="edge19" class="edge">
<title>N24&#45;&gt;N26</title>
<path fill="none" stroke="black" d="M1165.2,-215.73C1185.56,-198.33 1217.16,-171.31 1240.16,-151.66"/>
<polygon fill="black" stroke="black" points="1242.33,-154.4 1247.66,-145.24 1237.78,-149.08 1242.33,-154.4"/>
</g>
<!-- N21 -->
<g id="node26" class="node">
<title>N21</title>
<polygon fill="none" stroke="black" points="1092.5,-360 1033.5,-360 1033.5,-324 1092.5,-324 1092.5,-360"/>
<text text-anchor="middle" x="1063" y="-338.3" font-family="Times,serif" font-size="14.00">Lvalues</text>
</g>
<!-- N21&#45;&gt;N22 -->
<g id="edge20" class="edge">
<title>N21&#45;&gt;N22</title>
<path fill="none" stroke="black" d="M1053.36,-323.97C1043.93,-307.3 1029.4,-281.65 1018.37,-262.16"/>
<polygon fill="black" stroke="black" points="1021.53,-260.64 1013.56,-253.66 1015.44,-264.08 1021.53,-260.64"/>
</g>
<!-- N21&#45;&gt;N24 -->
<g id="edge21" class="edge">
<title>N21&#45;&gt;N24</title>
<path fill="none" stroke="black" d="M1076.17,-323.97C1089.25,-307.07 1109.47,-280.94 1124.61,-261.36"/>
<polygon fill="black" stroke="black" points="1127.31,-263.59 1130.66,-253.54 1121.77,-259.31 1127.31,-263.59"/>
</g>
<!-- N29 -->
<g id="node27" class="node">
<title>N29</title>
<polygon fill="none" stroke="black" points="1219,-360 1165,-360 1165,-324 1219,-324 1219,-360"/>
<text text-anchor="middle" x="1192" y="-338.3" font-family="Times,serif" font-size="14.00">i</text>
</g>
<!-- N18&#45;&gt;N19 -->
<g id="edge22" class="edge">
<title>N18&#45;&gt;N19</title>
<path fill="none" stroke="black" d="M913.48,-431.73C892.79,-414.33 860.67,-387.31 837.31,-367.66"/>
<polygon fill="black" stroke="black" points="839.58,-364.99 829.67,-361.23 835.07,-370.35 839.58,-364.99"/>
</g>
<!-- N18&#45;&gt;N20 -->
<g id="edge23" class="edge">
<title>N18&#45;&gt;N20</title>
<path fill="none" stroke="black" d="M934,-431.97C934,-415.76 934,-391.06 934,-371.79"/>
<polygon fill="black" stroke="black" points="937.5,-371.85 934,-361.85 930.5,-371.85 937.5,-371.85"/>
</g>
<!-- N18&#45;&gt;N21 -->
<g id="edge24" class="edge">
<title>N18&#45;&gt;N21</title>
<path fill="none" stroke="black" d="M955.01,-431.73C976.28,-414.25 1009.37,-387.07 1033.31,-367.4"/>
<polygon fill="black" stroke="black" points="1035.32,-370.27 1040.83,-361.22 1030.88,-364.86 1035.32,-370.27"/>
</g>
<!-- N18&#45;&gt;N29 -->
<g id="edge25" class="edge">
<title>N18&#45;&gt;N29</title>
<path fill="none" stroke="black" d="M961.12,-437.86C1007.38,-418.85 1101.63,-380.13 1154.28,-358.5"/>
<polygon fill="black" stroke="black" points="1155.53,-361.77 1163.45,-354.73 1152.87,-355.29 1155.53,-361.77"/>
</g>
<!-- N1 -->
<g id="node29" class="node">
<title>N1</title>
<polygon fill="none" stroke="black" points="602.5,-684 501.5,-684 501.5,-648 602.5,-648 602.5,-684"/>
<text text-anchor="middle" x="552" y="-662.3" font-family="Times,serif" font-size="14.00">Declarationlists</text>
</g>
<!-- N1&#45;&gt;N2 -->
<g id="edge27" class="edge">
<title>N1&#45;&gt;N2</title>
<path fill="none" stroke="black" d="M541.56,-647.97C531.29,-631.22 515.46,-605.41 503.49,-585.89"/>
<polygon fill="black" stroke="black" points="506.64,-584.33 498.42,-577.63 500.67,-587.99 506.64,-584.33"/>
</g>
<!-- N1&#45;&gt;N17 -->
<g id="edge28" class="edge">
<title>N1&#45;&gt;N17</title>
<path fill="none" stroke="black" d="M591.2,-647.61C634.51,-628.41 704.01,-597.58 748.57,-577.82"/>
<polygon fill="black" stroke="black" points="749.95,-581.04 757.67,-573.78 747.11,-574.64 749.95,-581.04"/>
</g>
<!-- N0 -->
<g id="node30" class="node">
<title>N0</title>
<polygon fill="none" stroke="black" points="584,-792 520,-792 520,-756 584,-756 584,-792"/>
<text text-anchor="middle" x="552" y="-770.3" font-family="Times,serif" font-size="14.00">Program</text>
</g>
<!-- N0&#45;&gt;N1 -->
<g id="edge29" class="edge">
<title>N0&#45;&gt;N1</title>
<path fill="none" stroke="black" d="M552,-755.97C552,-739.76 552,-715.06 552,-695.79"/>
<polygon fill="black" stroke="black" points="555.5,-695.85 552,-685.85 548.5,-695.85 555.5,-695.85"/>
</g>
</g>
</svg>
