<?xml version="1.0" encoding="UTF-8" standalone="no"?>
<!DOCTYPE svg PUBLIC "-//W3C//DTD SVG 1.1//EN"
 "http://www.w3.org/Graphics/SVG/1.1/DTD/svg11.dtd">
<!-- Generated by graphviz version 2.43.0 (0)
 -->
<!-- Title: ast Pages: 1 -->
<svg width="1322pt" height="800pt"
 viewBox="0.00 0.00 1322.00 800.00" xmlns="http://www.w3.org/2000/svg" xmlns:xlink="http://www.w3.org/1999/xlink">
<g id="graph0" class="graph" transform="scale(1 1) rotate(0) translate(4 796)">
<title>ast</title>
<polygon fill="white" stroke="transparent" points="-4,4 -4,-796 1318,-796 1318,4 -4,4"/>
<!-- N2 -->
<g id="node1" class="node">
<title>N2</title>
<polygon fill="none" stroke="black" points="562.5,-576 499.5,-576 499.5,-540 562.5,-540 562.5,-576"/>
<text text-anchor="middle" x="531" y="-554.3" font-family="Times,serif" font-size="14.00">IdfList</text>
</g>
<!-- N3 -->
<g id="node5" class="node">
<title>N3</title>
<polygon fill="none" stroke="black" points="295,-468 137,-468 137,-432 295,-432 295,-468"/>
<text text-anchor="middle" x="216" y="-446.3" font-family="Times,serif" font-size="14.00">VariableDeclaration</text>
</g>
<!-- N2&#45;&gt;N3 -->
<g id="edge4" class="edge">
<title>N2&#45;&gt;N3</title>
<path fill="none" stroke="black" d="M499.35,-546.35C447.31,-528.84 342.79,-493.67 276.28,-471.28"/>
<polygon fill="black" stroke="black" points="277.35,-467.95 266.75,-468.08 275.11,-474.58 277.35,-467.95"/>
</g>
<!-- N7 -->
<g id="node11" class="node">
<title>N7</title>
<polygon fill="none" stroke="black" points="610,-468 452,-468 452,-432 610,-432 610,-468"/>
<text text-anchor="middle" x="531" y="-446.3" font-family="Times,serif" font-size="14.00">VariableDeclaration</text>
</g>
<!-- N2&#45;&gt;N7 -->
<g id="edge10" class="edge">
<title>N2&#45;&gt;N7</title>
<path fill="none" stroke="black" d="M531,-539.97C531,-523.38 531,-497.88 531,-478.43"/>
<polygon fill="black" stroke="black" points="534.5,-478.34 531,-468.34 527.5,-478.34 534.5,-478.34"/>
</g>
<!-- N4 -->
<g id="node2" class="node">
<title>N4</title>
<polygon fill="none" stroke="black" points="54,-360 0,-360 0,-324 54,-324 54,-360"/>
<text text-anchor="middle" x="27" y="-338.3" font-family="Times,serif" font-size="14.00">a</text>
</g>
<!-- N5 -->
<g id="node3" class="node">
<title>N5</title>
<polygon fill="none" stroke="black" points="180,-360 126,-360 126,-324 180,-324 180,-360"/>
<text text-anchor="middle" x="153" y="-338.3" font-family="Times,serif" font-size="14.00">int</text>
</g>
<!-- N6 -->
<g id="node4" class="node">
<title>N6</title>
<polygon fill="none" stroke="black" points="306,-360 252,-360 252,-324 306,-324 306,-360"/>
<text text-anchor="middle" x="279" y="-338.3" font-family="Times,serif" font-size="14.00">10</text>
</g>
<!-- N3&#45;&gt;N4 -->
<g id="edge1" class="edge">
<title>N3&#45;&gt;N4</title>
<path fill="none" stroke="black" d="M185.63,-431.97C152.3,-413.27 98.81,-383.27 63.29,-363.35"/>
<polygon fill="black" stroke="black" points="64.66,-360.11 54.22,-358.27 61.23,-366.21 64.66,-360.11"/>
</g>
<!-- N3&#45;&gt;N5 -->
<g id="edge2" class="edge">
<title>N3&#45;&gt;N5</title>
<path fill="none" stroke="black" d="M205.88,-431.97C195.79,-414.99 180.16,-388.7 168.51,-369.09"/>
<polygon fill="black" stroke="black" points="171.42,-367.15 163.31,-360.34 165.41,-370.73 171.42,-367.15"/>
</g>
<!-- N3&#45;&gt;N6 -->
<g id="edge3" class="edge">
<title>N3&#45;&gt;N6</title>
<path fill="none" stroke="black" d="M226.12,-431.97C236.21,-414.99 251.84,-388.7 263.49,-369.09"/>
<polygon fill="black" stroke="black" points="266.59,-370.73 268.69,-360.34 260.58,-367.15 266.59,-370.73"/>
</g>
<!-- N8 -->
<g id="node6" class="node">
<title>N8</title>
<polygon fill="none" stroke="black" points="432,-360 378,-360 378,-324 432,-324 432,-360"/>
<text text-anchor="middle" x="405" y="-338.3" font-family="Times,serif" font-size="14.00">b</text>
</g>
<!-- N9 -->
<g id="node7" class="node">
<title>N9</title>
<polygon fill="none" stroke="black" points="558,-360 504,-360 504,-324 558,-324 558,-360"/>
<text text-anchor="middle" x="531" y="-338.3" font-family="Times,serif" font-size="14.00">int</text>
</g>
<!-- N11 -->
<g id="node8" class="node">
<title>N11</title>
<polygon fill="none" stroke="black" points="558,-252 504,-252 504,-216 558,-216 558,-252"/>
<text text-anchor="middle" x="531" y="-230.3" font-family="Times,serif" font-size="14.00">5</text>
</g>
<!-- N12 -->
<g id="node9" class="node">
<title>N12</title>
<polygon fill="none" stroke="black" points="684,-252 630,-252 630,-216 684,-216 684,-252"/>
<text text-anchor="middle" x="657" y="-230.3" font-family="Times,serif" font-size="14.00">a</text>
</g>
<!-- N10 -->
<g id="node10" class="node">
<title>N10</title>
<polygon fill="none" stroke="black" points="684,-360 630,-360 630,-324 684,-324 684,-360"/>
<text text-anchor="middle" x="657" y="-338.3" font-family="Times,serif" font-size="14.00">+</text>
</g>
<!-- N10&#45;&gt;N11 -->
<g id="edge5" class="edge">
<title>N10&#45;&gt;N11</title>
<path fill="none" stroke="black" d="M636.76,-323.97C615.85,-306.38 583.04,-278.78 559.51,-258.99"/>
<polygon fill="black" stroke="black" points="561.52,-256.1 551.61,-252.34 557.01,-261.46 561.52,-256.1"/>
</g>
<!-- N10&#45;&gt;N12 -->
<g id="edge6" class="edge">
<title>N10&#45;&gt;N12</title>
<path fill="none" stroke="black" d="M657,-323.97C657,-307.38 657,-281.88 657,-262.43"/>
<polygon fill="black" stroke="black" points="660.5,-262.34 657,-252.34 653.5,-262.34 660.5,-262.34"/>
</g>
<!-- N7&#45;&gt;N8 -->
<g id="edge7" class="edge">
<title>N7&#45;&gt;N8</title>
<path fill="none" stroke="black" d="M510.76,-431.97C489.85,-414.38 457.04,-386.78 433.51,-366.99"/>
<polygon fill="black" stroke="black" points="435.52,-364.1 425.61,-360.34 431.01,-369.46 435.52,-364.1"/>
</g>
<!-- N7&#45;&gt;N9 -->
<g id="edge8" class="edge">
<title>N7&#45;&gt;N9</title>
<path fill="none" stroke="black" d="M531,-431.97C531,-415.38 531,-389.88 531,-370.43"/>
<polygon fill="black" stroke="black" points="534.5,-370.34 531,-360.34 527.5,-370.34 534.5,-370.34"/>
</g>
<!-- N7&#45;&gt;N10 -->
<g id="edge9" class="edge">
<title>N7&#45;&gt;N10</title>
<path fill="none" stroke="black" d="M551.24,-431.97C572.15,-414.38 604.96,-386.78 628.49,-366.99"/>
<polygon fill="black" stroke="black" points="630.99,-369.46 636.39,-360.34 626.48,-364.1 630.99,-369.46"/>
</g>
<!-- N14 -->
<g id="node12" class="node">
<title>N14</title>
<polygon fill="none" stroke="black" points="773,-468 719,-468 719,-432 773,-432 773,-468"/>
<text text-anchor="middle" x="746" y="-446.3" font-family="Times,serif" font-size="14.00">a</text>
</g>
<!-- N15 -->
<g id="node13" class="node">
<title>N15</title>
<polygon fill="none" stroke="black" points="917,-468 863,-468 863,-432 917,-432 917,-468"/>
<text text-anchor="middle" x="890" y="-446.3" font-family="Times,serif" font-size="14.00">&amp;</text>
</g>
<!-- N16 -->
<g id="node16" class="node">
<title>N16</title>
<polygon fill="none" stroke="black" points="917,-360 863,-360 863,-324 917,-324 917,-360"/>
<text text-anchor="middle" x="890" y="-338.3" font-family="Times,serif" font-size="14.00">&#45;</text>
</g>
<!-- N15&#45;&gt;N16 -->
<g id="edge13" class="edge">
<title>N15&#45;&gt;N16</title>
<path fill="none" stroke="black" d="M890,-431.97C890,-415.38 890,-389.88 890,-370.43"/>
<polygon fill="black" stroke="black" points="893.5,-370.34 890,-360.34 886.5,-370.34 893.5,-370.34"/>
</g>
<!-- N19 -->
<g id="node25" class="node">
<title>N19</title>
<polygon fill="none" stroke="black" points="1062,-360 1008,-360 1008,-324 1062,-324 1062,-360"/>
<text text-anchor="middle" x="1035" y="-338.3" font-family="Times,serif" font-size="14.00">&gt;</text>
</g>
<!-- N15&#45;&gt;N19 -->
<g id="edge22" class="edge">
<title>N15&#45;&gt;N19</title>
<path fill="none" stroke="black" d="M913.3,-431.97C937.57,-414.23 975.77,-386.3 1002.89,-366.47"/>
<polygon fill="black" stroke="black" points="1005.27,-369.07 1011.28,-360.34 1001.14,-363.42 1005.27,-369.07"/>
</g>
<!-- N17 -->
<g id="node14" class="node">
<title>N17</title>
<polygon fill="none" stroke="black" points="810,-252 756,-252 756,-216 810,-216 810,-252"/>
<text text-anchor="middle" x="783" y="-230.3" font-family="Times,serif" font-size="14.00">1</text>
</g>
<!-- N18 -->
<g id="node15" class="node">
<title>N18</title>
<polygon fill="none" stroke="black" points="936,-252 882,-252 882,-216 936,-216 936,-252"/>
<text text-anchor="middle" x="909" y="-230.3" font-family="Times,serif" font-size="14.00">1</text>
</g>
<!-- N16&#45;&gt;N17 -->
<g id="edge11" class="edge">
<title>N16&#45;&gt;N17</title>
<path fill="none" stroke="black" d="M872.81,-323.97C855.21,-306.53 827.68,-279.26 807.74,-259.51"/>
<polygon fill="black" stroke="black" points="810.07,-256.89 800.5,-252.34 805.15,-261.86 810.07,-256.89"/>
</g>
<!-- N16&#45;&gt;N18 -->
<g id="edge12" class="edge">
<title>N16&#45;&gt;N18</title>
<path fill="none" stroke="black" d="M893.05,-323.97C896.03,-307.38 900.6,-281.88 904.08,-262.43"/>
<polygon fill="black" stroke="black" points="907.57,-262.8 905.89,-252.34 900.68,-261.57 907.57,-262.8"/>
</g>
<!-- N21 -->
<g id="node17" class="node">
<title>N21</title>
<polygon fill="none" stroke="black" points="936,-144 882,-144 882,-108 936,-108 936,-144"/>
<text text-anchor="middle" x="909" y="-122.3" font-family="Times,serif" font-size="14.00">1</text>
</g>
<!-- N22 -->
<g id="node18" class="node">
<title>N22</title>
<polygon fill="none" stroke="black" points="1062,-144 1008,-144 1008,-108 1062,-108 1062,-144"/>
<text text-anchor="middle" x="1035" y="-122.3" font-family="Times,serif" font-size="14.00">1</text>
</g>
<!-- N20 -->
<g id="node19" class="node">
<title>N20</title>
<polygon fill="none" stroke="black" points="1062,-252 1008,-252 1008,-216 1062,-216 1062,-252"/>
<text text-anchor="middle" x="1035" y="-230.3" font-family="Times,serif" font-size="14.00">+</text>
</g>
<!-- N20&#45;&gt;N21 -->
<g id="edge14" class="edge">
<title>N20&#45;&gt;N21</title>
<path fill="none" stroke="black" d="M1014.76,-215.97C993.85,-198.38 961.04,-170.78 937.51,-150.99"/>
<polygon fill="black" stroke="black" points="939.52,-148.1 929.61,-144.34 935.01,-153.46 939.52,-148.1"/>
</g>
<!-- N20&#45;&gt;N22 -->
<g id="edge15" class="edge">
<title>N20&#45;&gt;N22</title>
<path fill="none" stroke="black" d="M1035,-215.97C1035,-199.38 1035,-173.88 1035,-154.43"/>
<polygon fill="black" stroke="black" points="1038.5,-154.34 1035,-144.34 1031.5,-154.34 1038.5,-154.34"/>
</g>
<!-- N25 -->
<g id="node20" class="node">
<title>N25</title>
<polygon fill="none" stroke="black" points="1125,-36 1071,-36 1071,0 1125,0 1125,-36"/>
<text text-anchor="middle" x="1098" y="-14.3" font-family="Times,serif" font-size="14.00">2</text>
</g>
<!-- N26 -->
<g id="node21" class="node">
<title>N26</title>
<polygon fill="none" stroke="black" points="1251,-36 1197,-36 1197,0 1251,0 1251,-36"/>
<text text-anchor="middle" x="1224" y="-14.3" font-family="Times,serif" font-size="14.00">3</text>
</g>
<!-- N24 -->
<g id="node22" class="node">
<title>N24</title>
<polygon fill="none" stroke="black" points="1188,-144 1134,-144 1134,-108 1188,-108 1188,-144"/>
<text text-anchor="middle" x="1161" y="-122.3" font-family="Times,serif" font-size="14.00">*</text>
</g>
<!-- N24&#45;&gt;N25 -->
<g id="edge16" class="edge">
<title>N24&#45;&gt;N25</title>
<path fill="none" stroke="black" d="M1150.88,-107.97C1140.79,-90.99 1125.16,-64.7 1113.51,-45.09"/>
<polygon fill="black" stroke="black" points="1116.42,-43.15 1108.31,-36.34 1110.41,-46.73 1116.42,-43.15"/>
</g>
<!-- N24&#45;&gt;N26 -->
<g id="edge17" class="edge">
<title>N24&#45;&gt;N26</title>
<path fill="none" stroke="black" d="M1171.12,-107.97C1181.21,-90.99 1196.84,-64.7 1208.49,-45.09"/>
<polygon fill="black" stroke="black" points="1211.59,-46.73 1213.69,-36.34 1205.58,-43.15 1211.59,-46.73"/>
</g>
<!-- N27 -->
<g id="node23" class="node">
<title>N27</title>
<polygon fill="none" stroke="black" points="1314,-144 1260,-144 1260,-108 1314,-108 1314,-144"/>
<text text-anchor="middle" x="1287" y="-122.3" font-family="Times,serif" font-size="14.00">1</text>
</g>
<!-- N23 -->
<g id="node24" class="node">
<title>N23</title>
<polygon fill="none" stroke="black" points="1188,-252 1134,-252 1134,-216 1188,-216 1188,-252"/>
<text text-anchor="middle" x="1161" y="-230.3" font-family="Times,serif" font-size="14.00">+</text>
</g>
<!-- N23&#45;&gt;N24 -->
<g id="edge18" class="edge">
<title>N23&#45;&gt;N24</title>
<path fill="none" stroke="black" d="M1161,-215.97C1161,-199.38 1161,-173.88 1161,-154.43"/>
<polygon fill="black" stroke="black" points="1164.5,-154.34 1161,-144.34 1157.5,-154.34 1164.5,-154.34"/>
</g>
<!-- N23&#45;&gt;N27 -->
<g id="edge19" class="edge">
<title>N23&#45;&gt;N27</title>
<path fill="none" stroke="black" d="M1181.24,-215.97C1202.15,-198.38 1234.96,-170.78 1258.49,-150.99"/>
<polygon fill="black" stroke="black" points="1260.99,-153.46 1266.39,-144.34 1256.48,-148.1 1260.99,-153.46"/>
</g>
<!-- N19&#45;&gt;N20 -->
<g id="edge20" class="edge">
<title>N19&#45;&gt;N20</title>
<path fill="none" stroke="black" d="M1035,-323.97C1035,-307.38 1035,-281.88 1035,-262.43"/>
<polygon fill="black" stroke="black" points="1038.5,-262.34 1035,-252.34 1031.5,-262.34 1038.5,-262.34"/>
</g>
<!-- N19&#45;&gt;N23 -->
<g id="edge21" class="edge">
<title>N19&#45;&gt;N23</title>
<path fill="none" stroke="black" d="M1055.24,-323.97C1076.15,-306.38 1108.96,-278.78 1132.49,-258.99"/>
<polygon fill="black" stroke="black" points="1134.99,-261.46 1140.39,-252.34 1130.48,-256.1 1134.99,-261.46"/>
</g>
<!-- N13 -->
<g id="node26" class="node">
<title>N13</title>
<polygon fill="none" stroke="black" points="781.5,-576 710.5,-576 710.5,-540 781.5,-540 781.5,-576"/>
<text text-anchor="middle" x="746" y="-554.3" font-family="Times,serif" font-size="14.00">Lvalues</text>
</g>
<!-- N13&#45;&gt;N14 -->
<g id="edge23" class="edge">
<title>N13&#45;&gt;N14</title>
<path fill="none" stroke="black" d="M746,-539.97C746,-523.38 746,-497.88 746,-478.43"/>
<polygon fill="black" stroke="black" points="749.5,-478.34 746,-468.34 742.5,-478.34 749.5,-478.34"/>
</g>
<!-- N13&#45;&gt;N15 -->
<g id="edge24" class="edge">
<title>N13&#45;&gt;N15</title>
<path fill="none" stroke="black" d="M769.14,-539.97C793.24,-522.23 831.18,-494.3 858.12,-474.47"/>
<polygon fill="black" stroke="black" points="860.46,-477.09 866.44,-468.34 856.31,-471.45 860.46,-477.09"/>
</g>
<!-- N1 -->
<g id="node27" class="node">
<title>N1</title>
<polygon fill="none" stroke="black" points="684.5,-684 555.5,-684 555.5,-648 684.5,-648 684.5,-684"/>
<text text-anchor="middle" x="620" y="-662.3" font-family="Times,serif" font-size="14.00">Declarationlists</text>
</g>
<!-- N1&#45;&gt;N2 -->
<g id="edge25" class="edge">
<title>N1&#45;&gt;N2</title>
<path fill="none" stroke="black" d="M605.7,-647.97C591.19,-630.69 568.57,-603.74 552.02,-584.03"/>
<polygon fill="black" stroke="black" points="554.67,-581.75 545.56,-576.34 549.31,-586.25 554.67,-581.75"/>
</g>
<!-- N1&#45;&gt;N13 -->
<g id="edge26" class="edge">
<title>N1&#45;&gt;N13</title>
<path fill="none" stroke="black" d="M640.24,-647.97C661.15,-630.38 693.96,-602.78 717.49,-582.99"/>
<polygon fill="black" stroke="black" points="719.99,-585.46 725.39,-576.34 715.48,-580.1 719.99,-585.46"/>
</g>
<!-- N0 -->
<g id="node28" class="node">
<title>N0</title>
<polygon fill="none" stroke="black" points="659.5,-792 580.5,-792 580.5,-756 659.5,-756 659.5,-792"/>
<text text-anchor="middle" x="620" y="-770.3" font-family="Times,serif" font-size="14.00">Program</text>
</g>
<!-- N0&#45;&gt;N1 -->
<g id="edge27" class="edge">
<title>N0&#45;&gt;N1</title>
<path fill="none" stroke="black" d="M620,-755.97C620,-739.38 620,-713.88 620,-694.43"/>
<polygon fill="black" stroke="black" points="623.5,-694.34 620,-684.34 616.5,-694.34 623.5,-694.34"/>
</g>
</g>
</svg>
